<?xml version="1.0" encoding="UTF-8"?>
<svg width="20px" height="17px" viewBox="0 0 20 17" version="1.1" xmlns="http://www.w3.org/2000/svg" xmlns:xlink="http://www.w3.org/1999/xlink">
    <title>0CDB3EF6-C9B5-4935-AB70-9FD34A824A88</title>
    <g id="Cards" stroke="none" stroke-width="1" fill="none" fill-rule="evenodd">
        <g id="Smart-gallery-clickable-intro-Copy-8" transform="translate(-901.000000, -778.000000)" fill="#EBD730" fill-rule="nonzero">
            <g id="back-button" transform="translate(891.000000, 766.000000)">
                <path d="M27.1622937,23.771015 L19.8449324,23.7891466 L19.8449324,23.7891466 L19.8449324,24.0188509 C19.8449324,25.1459817 19.8449324,25.8987376 19.8449324,27.0258685 C19.8795885,27.4740897 19.6174303,27.8917765 19.2009988,28.0518238 C18.792056,28.2244627 18.3197674,28.1209409 18.0186946,27.7926724 C17.9852663,27.7607223 17.9518381,27.7269971 17.9184098,27.6932719 L11.2327607,20.9233869 C11.0010559,20.7257525 10.8674043,20.4351821 10.8674043,20.1290703 C10.8674043,19.8229585 11.0010559,19.5323881 11.2327607,19.3347537 L17.9500787,12.5488936 C18.2454768,12.1665184 18.7579052,12.0307535 19.2014091,12.217361 C19.6449129,12.4039685 19.9098812,12.8668287 19.8484512,13.3476477 C19.8378949,14.1002516 19.8484512,14.8510805 19.8484512,15.6036844 L19.8484512,16.4299586 L27.1573379,16.4299586 C28.2619074,16.4299586 29.1573379,17.3253891 29.1573379,18.4299586 L29.1573379,21.7710212 C29.1573379,22.8736558 28.2649249,23.7682828 27.1622937,23.771015 Z" id="Path_61"></path>
            </g>
        </g>
    </g>
</svg>